# xmcd CD database file
#
# Track frame offsets:
#	150
#	37056
#	58511
#	76411
#	107614
#	134905
#	159990
#	184626
#	204461
#
# Disc length: 3230 seconds
#
# Revision: 2
# Processed by: cddbd v1.5.2PL0 Copyright (c) Steve Scherf et al.
# Submitted via: CDex 1.70beta2
#
DISCID=780c9c09
DTITLE=Mark buselli - Claude Sifferlen - Take the Mitsu
DYEAR=2003
DGENRE=Jazz
TTITLE0=My ideal
TTITLE1=Bhutan
TTITLE2=Synchretism
TTITLE3=Blullage
TTITLE4=Stablemates
TTITLE5=A long time ago
TTITLE6=sophia
TTITLE7=Take The mitsu
TTITLE8=The nearness of you
EXTD=YEAR: 2003
EXTT0=
EXTT1=
EXTT2=
EXTT3=
EXTT4=
EXTT5=
EXTT6=
EXTT7=
EXTT8=
PLAYORDER=
